<?xml version="1.0" encoding="utf-8"?>
<!-- Generator: Adobe Illustrator 16.0.0, SVG Export Plug-In . SVG Version: 6.00 Build 0)  -->
<!DOCTYPE svg PUBLIC "-//W3C//DTD SVG 1.1//EN" "http://www.w3.org/Graphics/SVG/1.1/DTD/svg11.dtd">
<svg version="1.1" id="Logo" xmlns="http://www.w3.org/2000/svg" xmlns:xlink="http://www.w3.org/1999/xlink" x="0px" y="0px"
	 width="2500px" height="740.379px" viewBox="0 0 2500 740.379" enable-background="new 0 0 2500 740.379" xml:space="preserve">
<g>
	<path fill="#FFFFFF" d="M1115.324,141.943c32.605-14.003,67.434-22.505,102.715-26.06c36.311-3.647,74.6-1.316,107.186,16.393
		c9.477,5.537,16.156,12.211,24.025,19.646c7.869,7.427,19.24-6.341,23.424-11.391c12.191-14.671,16.025-38.709,5.6-55.224
		c-10.713-16.98-33.68-28.265-51.846-34.773c-19.699-7.073-40.879-9.688-61.699-10.197c-47.682-1.16-95.973,10.029-139.977,27.844
		c-43.793,17.739-85.178,44.229-116.75,79.626c-29.408,32.947-49.783,73.763-50.186,118.505
		c-0.205,24.446,5.436,48.852,20.381,68.531c14.66,19.322,36.996,32.315,58.342,42.894c43.115,21.39,93.396,35.28,125.721,73.144
		c8.076,9.47,13.654,22.727,16.006,35.82c0.014,0.366,0.035,0.731,0.109,1.079c0.084,0.397,0.166,0.773,0.24,1.174l0.061,0.194
		c0.629,4.192,0.945,8.362,0.869,12.335c-0.369,20.135-13.66,35.614-27.943,48.197c-35.752,31.513-87.303,47.317-133.877,50.571
		c-106.895,7.48-85.732-75.386-124.055-95.402c-8.184-4.272-16.189,3.152-20.34,7.647c-7.604,8.263-11.664,18.167-14.844,28.748
		c-11.166,37.252-5.416,81.296,24.852,107.919c33.572,29.523,86.506,29.421,128.184,24.528
		c37.051-4.367,73.822-15.588,106.715-33.211c34.104-18.282,64.07-44.923,83.721-78.479c22.188-37.896,26.092-82.304,15.227-124.558
		c-5.969-23.232-16.443-44.533-33.201-61.807c-16.504-17.021-37.617-29.195-58.629-39.771
		c-24.203-12.191-49.502-22.055-73.629-34.442c-18.166-9.333-41.625-22.014-48.873-42.537c-1.223-3.471-1.783-6.996-1.811-10.526
		c0.348-0.951,0.568-1.904,0.643-2.838c0.02-0.502,0.055-1.011,0.102-1.507c0.076-0.917-0.041-1.553-0.26-2.004
		c2.77-17.235,16.643-34.014,27.432-45.139C1052.58,172.506,1084.434,155.215,1115.324,141.943z"/>
	<path fill="#FFFFFF" d="M1771.689,258.671c-0.547-8.236-34.59-19.407-42.836,7.62c-2.938,9.692-8.223,61.12-49.355,133.987
		c-17.346,30.733-41.775,68.535-68.863,47.607c-19.623-15.146-29.018-43.551-22.023-65.966
		c19.191-61.567,57.275-97.022,76.787-123.854c9.402-12.93-2.352-30.552-12.928-36.429c-7.268-4.04-21.16-9.407-39.963,10.581
		c-22.373,23.76-51.047,85.413-59.736,116.889c-19.883,22.22-40.51,43.805-62.813,63.615c-4.643,4.113-9.443,7.983-14.447,11.653
		c-3.275,2.403-11.535,9.699-16.027,7.709c-2.83-1.247-3.705-22.463-3.596-27.472c11.602-20.828,21.729-42.451,27.662-65.632
		c2.764-10.834,3.652-21.896,1.635-32.928c-1.326-7.255-5.975-20.957-15.035-21.452c-19.744-1.08-34.268,24.743-40.742,39.952
		c-8.725,20.438-12.627,42.941-15.254,64.924c-11.697,18.654-24.955,36.589-40.939,51.764
		c-13.805,13.089-34.229,26.179-52.914,15.533c-36.639-20.853-5.457-73.137,10.83-96.752c12.73-18.461,29.291-34.292,47.43-47.327
		c9.148-6.58,18.877-12.156,29.004-17.045c8.703-4.191,16.717-6.475,23.314-13.858c10.516-11.764,14.631-26.269,13.209-41.827
		c-0.834-9.035-5.334-24.548-17.297-22.043c-9.148,1.922-18.461,7.572-26.598,11.952c-10.078,5.411-19.672,11.694-28.859,18.477
		c-18.625,13.743-35.006,30.122-49.904,47.771c-28.826,34.125-50.957,76.123-59.326,120.199c-7.5,39.478-1.402,98.55,42.158,115.201
		c44.488,17.001,86.824-34.302,110.66-64.365c0.225-0.286,0.449-0.583,0.676-0.879c2.68,11.887,6.83,23.951,15.076,32.936
		c11.979,13.069,27.479,5.351,39.936-2.216c15.172-9.202,28.332-21.772,41.07-33.99c11.213-10.755,22.262-21.664,33.1-32.788
		c2.467,25.62,9.838,50.805,25.07,71.855c8.137,11.264,19.869,22.19,33.969,24.809c15.197,2.824,28.496-3.148,40.59-11.951
		c24.445-17.784,41.244-45.393,56.271-71.031c9.365-15.972,17.578-32.644,25.195-49.597
		c-12.875,155.254-90.449,215.188-152.16,245.148c-99.537,48.347-99.201-54.606-137.504-51.113
		c-25.857,2.349-26.043,66.843-18.568,88.157c18.568,52.879,64.398,63.884,87.912,63.884c65.238,0,197.457-82.702,247.668-246.855
		c13.518-44.226,15.883-91.193,18.338-137.341c1.162-21.992,1.504-44.011,1.176-66.037
		C1772.586,279.667,1772.387,269.135,1771.689,258.671z"/>
	<path fill="#FFFFFF" d="M2472.941,370.725c-6.428,8.817-13.023,17.507-19.768,26.094c-11.404,14.508-22.67,30.582-38.635,40.274
		c1.813-1.104-2.865-23.971-3.023-29.157c11.043-19.852,20.689-40.373,26.781-62.33c3.023-10.909,4.385-22.002,2.928-33.28
		c-1.08-8.382-5.236-21.524-14.414-23.928c-7.951-2.066-16.223,4.575-21.734,9.427c-8.512,7.51-14.318,17.632-19,27.813
		c-9.682,21.021-13.75,44.79-16.436,67.653c-20.5,32.908-70.109,100.883-105.525,55.836c-2.236-5.154-4.609-8.895-5.328-14.826
		c-1.209-9.934,2.887-21.242,6.1-30.373c7.002-19.87,19.322-38.313,32.928-54.219c15.473-18.089,33.967-33.488,54.746-45.136
		c8.703-4.868,18.48-7.836,26.965-12.96c7.398-4.461,13.381-13.571,16.613-21.396c4.924-11.891,5.313-26.535,0.65-38.559
		c-6.303-16.267-19.758-8.725-31.75-3.043c-41.326,19.6-76.119,52.684-102.367,89.714c-12.184,17.214-22.494,35.614-30.746,54.998
		c-4.902,6.297-9.154,13.195-13.982,19.503c-8.061,10.54-17.059,20.471-27.123,29.13c-8.777,7.542-20.465,14.475-32.168,15.415
		c-4.35,0.346-8.93,0.13-12.869-1.734c-0.889-0.424-1.291-1.565-1.414-3.008l0.02-0.259c0.041-0.596,0.076-1.174,0.104-1.766
		c0.035-0.528-0.008-0.946-0.068-1.306c0.219-2.393,0.703-4.793,0.842-5.862c1.543-12.113,3.703-24.3,8.225-35.628
		c13.777-34.542,53.549-90.135,70.189-110.943c9.402-11.747-4.533-24.888-14.693-29.961c-10.576-5.299-32.324-8.816-40.551,6.451
		c-11.096,20.609-30.33,56.461-39.143,78.131c-4.826,11.897-7.344,22.553-14.139,31.813c-8.205,11.155-16.984,21.89-26.516,31.934
		c-11.33,11.938-25.51,24.131-42.047,27.608c-12.648,2.663-28.854-1.752-28.143-14.877c3.07-55.87,44.756-102.117,66.539-128.748
		c10.584-12.929,1.354-23.52-8.225-31.724c-8.227-7.058-24.676-8.232-32.326-0.906c-12.656,12.129-22.377,27.317-31.014,42.321
		c-17.701,30.764-29.988,66.185-35.922,101.2c-13.682,21.093-28.205,41.639-44.176,61.077
		c-15.266,18.569-32.504,37.765-55.148,47.193c-22.342,9.294-33.07-13.501-34.35-31.821
		c-3.904-56.286,64.105-197.898,170.635-366.573c21.16-33.492-32.6-43.439-42.281-44.273c-8.848-0.77-17.674,12.2-21.611,18.31
		c-7.67,11.927-14.037,24.921-20.758,37.399c-26.057,48.389-49.693,98.103-70.818,148.834
		c-20.902,50.182-40.723,101.816-51.867,155.151c-5.482,26.286-7.986,53.224-6.551,80.053c1.17,22.034,6.646,44.567,20.588,62.112
		c25.822,32.504,66.244,9.111,90.441-12.156c26.713-23.473,48.947-51.717,69.473-80.753c3.615,9.186,8.758,17.526,16.572,23.953
		c11.268,9.258,27.117,10.335,40.756,7.234c24.184-5.508,45.057-23.414,62.402-41.532c0.615,24.972,8.309,52.769,36.525,57.195
		c16.463,2.578,32.947-5.846,46.191-14.641c11.932-7.921,22.658-17.962,32.564-28.487c5.506,36.69,29.414,76.422,71.799,68.426
		c19.744-3.729,36.838-17.339,50.998-30.859c11.807-11.267,22.514-23.666,32.51-36.599c3.029,15.161,8.689,32.209,23.361,38.748
		c19.016,8.461,40.463-17.219,51.471-29.095c18.188-19.646,34.439-41.225,50.084-62.908
		C2510.6,396.313,2479.197,362.141,2472.941,370.725z"/>
	<path fill="#FFFFFF" d="M343.637,137.349c27.43,0,53.609,5.347,77.531,15.068c-75.508,30.644-128.75,104.714-128.75,191.215
		c0,86.504,53.242,160.57,128.75,191.214c-23.922,9.724-50.102,15.07-77.531,15.07c-113.929,0-206.285-92.356-206.285-206.284
		C137.352,229.705,229.708,137.349,343.637,137.349z"/>
	<path fill="#FFFFFF" d="M266.677,67.035C291.734,60.561,343.637,0,343.637,0s51.898,60.561,76.957,67.035
		c25.053,6.462,94.859-21.001,94.859-21.001s20.086,77.447,38.432,95.103c18.338,17.677,87.344,30.678,87.344,30.678
		s-17.1,73.573-10.393,97.695c6.729,24.133,56.434,74.122,56.434,74.122s-49.705,49.99-56.434,74.121
		c-6.707,24.122,10.393,97.7,10.393,97.7s-69.006,13.001-87.344,30.674c-18.346,17.654-38.432,95.105-38.432,95.105
		s-69.807-27.465-94.859-21.003c-25.059,6.475-76.957,67.038-76.957,67.038s-51.902-60.563-76.96-67.038
		c-25.052-6.462-94.859,21.003-94.859,21.003s-20.088-77.451-38.431-95.105c-18.344-17.673-87.352-30.674-87.352-30.674
		s17.113-73.578,10.399-97.7C49.72,393.622,0,343.632,0,343.632s49.72-49.989,56.434-74.122
		c6.714-24.122-10.399-97.695-10.399-97.695s69.007-13.001,87.352-30.678c18.343-17.655,38.431-95.103,38.431-95.103
		S241.625,73.497,266.677,67.035z M343.637,94.911c-137.374,0-248.723,111.353-248.723,248.721
		c0,137.372,111.35,248.726,248.723,248.726c137.371,0,248.721-111.354,248.721-248.726
		C592.357,206.264,481.008,94.911,343.637,94.911z"/>
</g>
</svg>
